<svg width="31" height="31" viewBox="0 0 31 31" fill="none" xmlns="http://www.w3.org/2000/svg">
<path d="M29.4029 0.291227C28.3042 0.101985 27.1917 0.00457475 26.0769 6.66778e-06C22.2732 -0.00311166 18.5488 1.0876 15.3477 3.14212C12.1384 1.11457 8.4146 0.0506342 4.61855 0.0766434C3.5037 0.0812115 2.39118 0.178621 1.29251 0.367863C0.932632 0.429906 0.606732 0.618402 0.373499 0.899406C0.140267 1.18041 0.0150278 1.53545 0.0203367 1.9006V20.2934C0.0170541 20.5187 0.0634468 20.7418 0.156214 20.9471C0.248981 21.1523 0.385842 21.3346 0.55706 21.4809C0.728278 21.6273 0.929644 21.7341 1.14683 21.7937C1.36402 21.8534 1.59169 21.8645 1.81364 21.8262C4.01008 21.4459 6.26042 21.509 8.4321 22.0118C10.6038 22.5145 12.6529 23.4468 14.4587 24.7537L14.6426 24.861H14.8112C14.9812 24.9318 15.1636 24.9683 15.3477 24.9683C15.5319 24.9683 15.7142 24.9318 15.8842 24.861H16.0528L16.2367 24.7537C18.0299 23.4176 20.0731 22.4551 22.2452 21.9233C24.4173 21.3914 26.6741 21.3011 28.8818 21.6576C29.1037 21.6959 29.3314 21.6848 29.5486 21.6251C29.7658 21.5655 29.9671 21.4587 30.1383 21.3123C30.3096 21.166 30.4464 20.9837 30.5392 20.7785C30.632 20.5732 30.6784 20.3501 30.6751 20.1248V1.732C30.6591 1.38277 30.5243 1.04949 30.2929 0.787431C30.0615 0.525375 29.7475 0.350293 29.4029 0.291227ZM13.815 20.6613C10.9792 19.1695 7.82276 18.3909 4.61855 18.3928H3.08581V3.06548C3.5963 3.03606 4.10806 3.03606 4.61855 3.06548C7.88847 3.06187 11.087 4.02143 13.815 5.82441V20.6613ZM27.6096 18.4542H26.0769C22.8726 18.4522 19.7162 19.2308 16.8804 20.7226V5.82441C19.6084 4.02143 22.8069 3.06187 26.0769 3.06548C26.5873 3.03606 27.0991 3.03606 27.6096 3.06548V18.4542ZM29.4029 24.815C28.3042 24.6258 27.1917 24.5284 26.0769 24.5238C22.2732 24.5207 18.5488 25.6114 15.3477 27.6659C12.1466 25.6114 8.42224 24.5207 4.61855 24.5238C3.5037 24.5284 2.39118 24.6258 1.29251 24.815C1.09299 24.8467 0.901695 24.9175 0.72963 25.0233C0.557564 25.1292 0.408121 25.268 0.289894 25.4318C0.171667 25.5956 0.0869884 25.7812 0.0407279 25.9778C-0.00553267 26.1745 -0.0124625 26.3783 0.0203367 26.5777C0.0982283 26.9757 0.330701 27.3266 0.66683 27.5536C1.00296 27.7805 1.41534 27.865 1.81364 27.7885C4.01008 27.4082 6.26042 27.4713 8.4321 27.9741C10.6038 28.4769 12.6529 29.4092 14.4587 30.7161C14.7183 30.9009 15.029 31.0002 15.3477 31.0002C15.6664 31.0002 15.9771 30.9009 16.2367 30.7161C18.0425 29.4092 20.0916 28.4769 22.2633 27.9741C24.435 27.4713 26.6853 27.4082 28.8818 27.7885C29.2801 27.865 29.6924 27.7805 30.0286 27.5536C30.3647 27.3266 30.5972 26.9757 30.6751 26.5777C30.7079 26.3783 30.7009 26.1745 30.6547 25.9778C30.6084 25.7812 30.5237 25.5956 30.4055 25.4318C30.2873 25.268 30.1378 25.1292 29.9658 25.0233C29.7937 24.9175 29.6024 24.8467 29.4029 24.815Z" fill="#EAF4F4"/>
</svg>
