<svg width="31" height="31" viewBox="0 0 31 31" fill="none" xmlns="http://www.w3.org/2000/svg">
<path d="M15.5 0C24.0625 0 31 6.9375 31 15.5C31 24.0625 24.0625 31 15.5 31C6.9375 31 0 24.0625 0 15.5C0 6.9375 6.9375 0 15.5 0ZM22.6187 14.4375L14.15 5.96875C13.5625 5.38125 12.6125 5.38125 12.0312 5.96875L10.9688 7.03125C10.3813 7.61875 10.3813 8.56875 10.9688 9.15L17.3188 15.5L10.9688 21.85C10.3813 22.4375 10.3813 23.3875 10.9688 23.9688L12.0312 25.0312C12.6187 25.6187 13.5687 25.6187 14.15 25.0312L22.6187 16.5625C23.2062 15.975 23.2062 15.025 22.6187 14.4375Z" fill="#CDE7BE"/>
</svg>
