<svg width="42" height="42" viewBox="0 0 42 42" fill="none" xmlns="http://www.w3.org/2000/svg">
<path fill-rule="evenodd" clip-rule="evenodd" d="M19 4C15.0218 4 11.2064 5.58035 8.3934 8.3934C5.58035 11.2064 4 15.0218 4 19C4 22.9782 5.58035 26.7936 8.3934 29.6066C11.2064 32.4196 15.0218 34 19 34C22.9601 34 26.7588 32.434 29.5681 29.6449C29.5834 29.6286 29.5991 29.6125 29.615 29.5965C29.6295 29.5821 29.6441 29.5679 29.6589 29.554C32.4392 26.7461 34 22.9535 34 19C34 15.0218 32.4196 11.2064 29.6066 8.3934C26.7936 5.58035 22.9782 4 19 4ZM33.7807 30.9387C36.4982 27.5745 38 23.3647 38 19C38 13.9609 35.9982 9.12816 32.435 5.56497C28.8718 2.00178 24.0391 0 19 0C13.9609 0 9.12816 2.00178 5.56497 5.56497C2.00178 9.12816 0 13.9609 0 19C0 24.0391 2.00178 28.8718 5.56497 32.435C9.12816 35.9982 13.9609 38 19 38C23.3712 38 27.5871 36.4937 30.9537 33.7686L38.5845 41.413C39.3649 42.1947 40.6312 42.1958 41.413 41.4155C42.1947 40.6351 42.1958 39.3688 41.4155 38.587L33.7807 30.9387Z" fill="#C4CCCC"/>
</svg>
