<?xml version="1.0" standalone="no"?>
<!DOCTYPE svg PUBLIC "-//W3C//DTD SVG 20010904//EN"
 "http://www.w3.org/TR/2001/REC-SVG-20010904/DTD/svg10.dtd">
<svg version="1.0" xmlns="http://www.w3.org/2000/svg"
 width="8500.000000pt" height="5154.000000pt" viewBox="0 0 8500.000000 5154.000000"
 preserveAspectRatio="xMidYMid meet">

<g transform="translate(0.000000,5154.000000) scale(0.100000,-0.100000)"
fill="#000000" stroke="none">
<path d="M38732 50728 c-7 -68 -25 -262 -42 -433 -17 -170 -69 -725 -115
-1232 -180 -1962 -274 -2778 -421 -3658 -474 -2836 -1628 -5608 -3601 -8654
-785 -1211 -1473 -2171 -2953 -4122 -970 -1276 -1486 -1971 -1967 -2644 -1575
-2206 -2569 -3945 -3303 -5780 -782 -1952 -1207 -3824 -1320 -5800 -29 -511
-22 -1384 15 -1925 174 -2500 897 -4893 2200 -7275 667 -1220 1448 -2368 2231
-3279 334 -389 937 -1009 1302 -1340 1447 -1308 3095 -2335 5097 -3176 218
-91 640 -260 652 -260 3 0 -88 96 -203 213 -1390 1413 -2482 3161 -3157 5052
-689 1932 -941 3940 -742 5905 231 2269 1095 4341 2460 5900 139 159 357 392
361 387 3 -2 20 -139 39 -303 263 -2263 756 -3713 1583 -4655 420 -478 963
-834 1598 -1047 179 -60 273 -87 280 -80 3 3 -2 77 -11 164 -38 401 -76 938
-102 1474 -22 446 -25 1829 -5 2205 90 1712 289 3025 671 4410 811 2943 2405
5553 4741 7760 254 240 591 545 603 545 4 0 7 -13 7 -30 0 -47 29 -454 50
-715 251 -3014 930 -5024 2497 -7385 325 -489 544 -793 1304 -1810 1067 -1427
1551 -2108 2062 -2901 632 -985 1050 -1765 1369 -2562 1021 -2554 1047 -5231
73 -7687 -125 -315 -192 -465 -350 -785 -213 -431 -410 -777 -662 -1160 -531
-806 -1095 -1470 -1918 -2256 -111 -105 -322 -350 -564 -651 l-24 -30 24 7
c69 22 595 243 884 373 4007 1798 6815 4428 8679 8132 839 1667 1395 3350
1701 5151 144 850 216 1607 250 2619 16 475 13 752 -15 1400 -124 2781 -868
5900 -2143 8975 -371 895 -766 1761 -1557 3415 -652 1363 -1069 2249 -1180
2508 -12 28 -28 52 -34 52 -6 0 -92 -27 -191 -59 l-179 -58 -62 -304 c-371
-1831 -928 -2996 -1875 -3924 -270 -264 -536 -480 -840 -681 -132 -88 -357
-224 -369 -224 -4 0 -10 314 -13 698 -6 682 -11 858 -42 1407 -263 4618 -1559
8642 -3909 12135 -1105 1642 -2413 3134 -3999 4562 -1210 1090 -2610 2145
-4145 3122 -191 121 -699 436 -705 436 -2 0 -9 -55 -15 -122z"/>
</g>
</svg>
