<svg width="34" height="22" viewBox="0 0 34 22" fill="none" xmlns="http://www.w3.org/2000/svg">
<path d="M31.5112 14.9031L20.2536 21.4011C19.569 21.7944 18.7932 22.0009 18.0037 22C17.2142 21.9991 16.4388 21.7908 15.7552 21.396C15.0715 21.0012 14.5036 20.4337 14.1082 19.7503C13.7128 19.067 13.5039 18.2918 13.5024 17.5023L6.75124 21.4011C6.06668 21.7944 5.29082 22.0009 4.50135 22C3.71187 21.9991 2.93648 21.7908 2.25282 21.396C1.56916 21.0012 1.00121 20.4337 0.605851 19.7503C0.21049 19.067 0.00158764 18.2918 6.05783e-05 17.5023V4.50629C-0.00405607 3.71822 0.201709 2.94326 0.596216 2.26103C0.990722 1.5788 1.55975 1.0139 2.24483 0.624368C2.92839 0.215576 3.71 -0.000243372 4.50647 -0.000117823C5.29479 0.0040987 6.06842 0.213505 6.75124 0.607488L13.5024 4.50629C13.4988 3.71605 13.7046 2.93896 14.0989 2.25411C14.4932 1.56927 15.0619 1.00111 15.7472 0.607488C16.4317 0.210309 17.209 0.00112222 18.0004 0.00112222C18.7918 0.00112222 19.5691 0.210309 20.2536 0.607488L31.5112 7.10549C32.1944 7.50153 32.7616 8.07017 33.1559 8.75443C33.5502 9.4387 33.7577 10.2146 33.7577 11.0043C33.7577 11.794 33.5502 12.5699 33.1559 13.2542C32.7616 13.9384 32.1944 14.5071 31.5112 14.9031ZM13.5024 8.4051L5.06344 3.54425C4.89303 3.44776 4.70048 3.39718 4.50465 3.39745C4.30881 3.39773 4.11641 3.44886 3.94627 3.54584C3.77613 3.64282 3.6341 3.78232 3.53407 3.95068C3.43405 4.11904 3.37946 4.31049 3.37565 4.50629V17.5023C3.37946 17.6981 3.43405 17.8896 3.53407 18.0579C3.6341 18.2263 3.77613 18.3658 3.94627 18.4628C4.11641 18.5597 4.30881 18.6109 4.50465 18.6111C4.70048 18.6114 4.89303 18.5608 5.06344 18.4643L13.5024 13.6035V8.4051ZM29.8234 10.0929L18.5658 3.52737C18.3928 3.43131 18.1982 3.38091 18.0004 3.38091C17.8025 3.38091 17.6079 3.43131 17.435 3.52737C17.2635 3.62634 17.1216 3.7692 17.0237 3.94126C16.9258 4.11331 16.8755 4.30835 16.878 4.50629V17.5023C16.8755 17.7002 16.9258 17.8953 17.0237 18.0673C17.1216 18.2394 17.2635 18.3823 17.435 18.4812C17.6122 18.5749 17.8085 18.6268 18.0088 18.6331C18.2049 18.6348 18.3977 18.5823 18.5658 18.4812L29.8234 11.9832C29.9951 11.8839 30.1377 11.7412 30.2368 11.5694C30.3359 11.3975 30.3881 11.2027 30.3881 11.0043C30.3881 10.8059 30.3359 10.6111 30.2368 10.4392C30.1377 10.2674 29.9951 10.1247 29.8234 10.0254V10.0929Z" fill="#2D3047"/>
</svg>
