<svg width="24" height="24" viewBox="0 0 24 24" fill="none" xmlns="http://www.w3.org/2000/svg">
<path fill-rule="evenodd" clip-rule="evenodd" d="M21.3333 13.3333C22.0406 13.3333 22.7189 13.6143 23.219 14.1144C23.719 14.6145 24 15.2928 24 16V21.3333C24 22.0406 23.719 22.7189 23.219 23.219C22.7189 23.719 22.0406 24 21.3333 24C20.6261 24 19.9478 23.719 19.4477 23.219C18.9476 22.7189 18.6667 22.0406 18.6667 21.3333V9.33333C18.6667 7.56522 17.9643 5.86953 16.714 4.61929C15.4638 3.36905 13.7681 2.66667 12 2.66667C10.2319 2.66667 8.5362 3.36905 7.28595 4.61929C6.03571 5.86953 5.33333 7.56522 5.33333 9.33333V21.3333C5.33333 22.0406 5.05238 22.7189 4.55229 23.219C4.05219 23.719 3.37391 24 2.66667 24C1.95942 24 1.28115 23.719 0.781048 23.219C0.280951 22.7189 0 22.0406 0 21.3333V16C0 15.2928 0.280951 14.6145 0.781048 14.1144C1.28115 13.6143 1.95942 13.3333 2.66667 13.3333V9.33333C2.66667 8.10766 2.90808 6.89399 3.37712 5.76162C3.84617 4.62925 4.53366 3.60035 5.40034 2.73367C6.26702 1.86699 7.29592 1.1795 8.42829 0.710458C9.56066 0.241414 10.7743 0 12 0C13.2257 0 14.4393 0.241414 15.5717 0.710458C16.7041 1.1795 17.733 1.86699 18.5997 2.73367C19.4663 3.60035 20.1538 4.62925 20.6229 5.76162C21.0919 6.89399 21.3333 8.10766 21.3333 9.33333V13.3333Z" fill="#C4CCCC"/>
</svg>
