<svg width="40" height="41" viewBox="0 0 40 41" fill="none" xmlns="http://www.w3.org/2000/svg">
<path fill-rule="evenodd" clip-rule="evenodd" d="M15.8688 1.64977C16.9838 0.590573 18.463 0 20.001 0C21.5391 0 23.0184 0.590661 24.1335 1.65001L36.8874 13.7639C37.8707 14.6981 38.6539 15.8227 39.189 17.0691C39.7241 18.3154 40 19.6576 40 21.014V34.48C40 36.0713 39.3679 37.5974 38.2426 38.7226C37.1174 39.8479 35.5913 40.48 34 40.48H6C4.4087 40.48 2.88258 39.8479 1.75736 38.7226C0.632141 37.5974 0 36.0713 0 34.48V21.014C-1.43051e-06 19.6576 0.275931 18.3154 0.81101 17.0691C1.34609 15.8227 2.12913 14.6982 3.1125 13.764L15.8688 1.64977C15.8688 1.64969 15.8687 1.64985 15.8688 1.64977ZM16 36.48H24V26.48C24 25.9496 23.7893 25.4409 23.4142 25.0658C23.0391 24.6907 22.5304 24.48 22 24.48H18C17.4696 24.48 16.9609 24.6907 16.5858 25.0658C16.2107 25.4409 16 25.9496 16 26.48V36.48ZM28 36.48V26.48C28 24.8887 27.3679 23.3626 26.2426 22.2374C25.1174 21.1121 23.5913 20.48 22 20.48H18C16.4087 20.48 14.8826 21.1121 13.7574 22.2374C12.6321 23.3626 12 24.8887 12 26.48V36.48H6C5.46957 36.48 4.96086 36.2693 4.58579 35.8942C4.21071 35.5191 4 35.0104 4 34.48V21.014C4 20.2002 4.16556 19.3949 4.48661 18.647C4.80761 17.8993 5.27734 17.2247 5.86725 16.6642C5.86716 16.6643 5.86733 16.6642 5.86725 16.6642L18.6232 4.55024C18.9949 4.19713 19.4883 4 20.001 4C20.5137 4 21.0068 4.19689 21.3785 4.55L34.1325 16.664C34.1325 16.664 34.1325 16.664 34.1325 16.664C34.7225 17.2245 35.1924 17.8993 35.5134 18.647C35.8344 19.3949 36 20.2002 36 21.014V34.48C36 35.0104 35.7893 35.5191 35.4142 35.8942C35.0391 36.2693 34.5304 36.48 34 36.48H28Z" fill="#CDE7BE"/>
</svg>
