<svg width="28" height="39" viewBox="0 0 28 39" fill="none" xmlns="http://www.w3.org/2000/svg">
<path fill-rule="evenodd" clip-rule="evenodd" d="M4 31.078V7.07802L10.0938 4.45239V33.7036L4 31.078ZM0 5.45924C0 4.22691 0.901923 3.18062 2.12039 2.99876L10 0.0780161C11.5034 -0.146514 14 0.0454723 14 1.56547V36.5896C14 38.1096 12.5034 38.3022 11 38.0776L2.12039 35.1563C0.901923 34.9745 0 33.9282 0 32.6959V5.45924ZM18 35.9445L19.0684 36.2682C20.5718 36.4928 22 35.3281 22 33.8081V3.42062C22 1.90063 20.5034 0.853323 19 1.07756L18 1.28428V35.9445ZM24 34.0527L25.922 34.414C28 34.414 28 33.0776 28 31.8293V6.07756C28 5.07756 28 3.74134 25.922 3.74134L24 4.02825V34.0527Z" fill="#C4CCCC"/>
</svg>
