<svg width="27" height="27" viewBox="0 0 27 27" fill="none" xmlns="http://www.w3.org/2000/svg">
<path fill-rule="evenodd" clip-rule="evenodd" d="M24 15C24.7956 15 25.5587 15.3161 26.1213 15.8787C26.6839 16.4413 27 17.2044 27 18V24C27 24.7956 26.6839 25.5587 26.1213 26.1213C25.5587 26.6839 24.7956 27 24 27C23.2044 27 22.4413 26.6839 21.8787 26.1213C21.3161 25.5587 21 24.7956 21 24V10.5C21 8.51088 20.2098 6.60322 18.8033 5.1967C17.3968 3.79018 15.4891 3 13.5 3C11.5109 3 9.60322 3.79018 8.1967 5.1967C6.79018 6.60322 6 8.51088 6 10.5V24C6 24.7956 5.68393 25.5587 5.12132 26.1213C4.55871 26.6839 3.79565 27 3 27C2.20435 27 1.44129 26.6839 0.87868 26.1213C0.31607 25.5587 0 24.7956 0 24V18C0 17.2044 0.31607 16.4413 0.87868 15.8787C1.44129 15.3161 2.20435 15 3 15V10.5C3 9.12112 3.27159 7.75574 3.79926 6.48182C4.32694 5.20791 5.10036 4.05039 6.07538 3.07538C7.05039 2.10036 8.2079 1.32694 9.48182 0.799265C10.7557 0.27159 12.1211 0 13.5 0C14.8789 0 16.2443 0.27159 17.5182 0.799265C18.7921 1.32694 19.9496 2.10036 20.9246 3.07538C21.8996 4.05039 22.6731 5.20791 23.2007 6.48182C23.7284 7.75574 24 9.12112 24 10.5V15Z" fill="#EAF4F4"/>
</svg>
