<svg width="28" height="30" viewBox="0 0 28 30" fill="none" xmlns="http://www.w3.org/2000/svg">
<path d="M24.6528 20.0018L8.55119 29.2361C7.67992 29.7392 6.691 30.0027 5.6849 30C4.6788 29.9972 3.69135 29.7282 2.82285 29.2203C1.95434 28.7124 1.23573 27.9837 0.740005 27.1082C0.244275 26.2327 -0.0109144 25.2416 0.000357887 24.2356V5.70043C0.000357887 4.18855 0.60095 2.73859 1.67001 1.66953C2.73907 0.600467 4.18903 -0.000127805 5.70092 -0.000127805C6.70174 0.0015699 7.68459 0.26596 8.55119 0.766613L24.6528 10.0009C25.518 10.5016 26.2362 11.221 26.7356 12.087C27.235 12.953 27.4978 13.935 27.4978 14.9347C27.4978 15.9343 27.235 16.9164 26.7356 17.7823C26.2362 18.6483 25.518 19.3677 24.6528 19.8685V20.0018ZM22.9859 13.0178L6.88436 3.65023C6.52347 3.4457 6.11573 3.33819 5.70092 3.33819C5.2861 3.33819 4.87836 3.4457 4.51747 3.65023C4.15759 3.858 3.85876 4.15686 3.65102 4.51675C3.44328 4.87664 3.33395 5.28488 3.33402 5.70043V24.3022C3.33395 24.7178 3.44328 25.126 3.65102 25.4859C3.85876 25.8458 4.15759 26.1447 4.51747 26.3524C4.87984 26.5539 5.28637 26.6627 5.70092 26.6691C6.11518 26.6606 6.52122 26.552 6.88436 26.3524L22.9859 17.0515C23.3459 16.8439 23.6449 16.545 23.8528 16.1851C24.0607 15.8252 24.1701 15.417 24.1701 15.0013C24.1701 14.5857 24.0607 14.1774 23.8528 13.8175C23.6449 13.4576 23.3459 13.1588 22.9859 12.9511V13.0178Z" fill="#232538"/>
</svg>
