<svg width="30" height="11" viewBox="0 0 30 11" fill="none" xmlns="http://www.w3.org/2000/svg">
<path fill-rule="evenodd" clip-rule="evenodd" d="M8.18218 8.1809C8.90553 8.1809 9.59925 7.89355 10.1107 7.38206C10.6222 6.87058 10.9096 6.17686 10.9096 5.45351C10.9096 4.73016 10.6222 4.03643 10.1107 3.52495C9.59925 3.01346 8.90553 2.72611 8.18218 2.72611C7.45883 2.72611 6.76511 3.01346 6.25362 3.52495C5.74214 4.03643 5.45479 4.73016 5.45479 5.45351C5.45479 6.17686 5.74214 6.87058 6.25362 7.38206C6.76511 7.89355 7.45883 8.1809 8.18218 8.1809ZM12.9074 2.72611C12.3653 1.78844 11.5565 1.03326 10.5839 0.5567C9.61132 0.0801378 8.51891 -0.0962549 7.44575 0.0499726C6.37259 0.1962 5.3672 0.658435 4.55756 1.37784C3.74792 2.09725 3.17065 3.04129 2.89922 4.08981H1.3637C1.00202 4.08981 0.65516 4.23348 0.399418 4.48923C0.143675 4.74497 0 5.09183 0 5.45351C0 5.81518 0.143675 6.16204 0.399418 6.41779C0.65516 6.67353 1.00202 6.8172 1.3637 6.8172H2.89922C3.23432 8.09975 4.02477 9.21648 5.12296 9.95889C6.22116 10.7013 7.55203 11.0186 8.86706 10.8516C10.1821 10.6846 11.3914 10.0447 12.2691 9.05132C13.1469 8.05797 13.6331 6.7791 13.637 5.45351H16.3644C16.363 6.78211 16.8467 8.06552 17.7245 9.06284C18.6023 10.0602 19.8139 10.7028 21.1319 10.8702C22.4499 11.0376 23.7837 10.7182 24.883 9.97197C25.9822 9.22573 26.7713 8.10396 27.1021 6.8172H28.6376C28.9993 6.8172 29.3462 6.67353 29.6019 6.41779C29.8577 6.16204 30.0013 5.81518 30.0013 5.45351C30.0013 5.09183 29.8577 4.74497 29.6019 4.48923C29.3462 4.23348 28.9993 4.08981 28.6376 4.08981H27.1021C26.8307 3.04129 26.2534 2.09725 25.4438 1.37784C24.6341 0.658435 23.6287 0.1962 22.5556 0.0499726C21.4824 -0.0962549 20.39 0.0801378 19.4174 0.5567C18.4448 1.03326 17.636 1.78844 17.0939 2.72611H12.9074ZM19.0918 5.45351C19.0918 6.17686 19.3791 6.87058 19.8906 7.38206C20.4021 7.89355 21.0958 8.1809 21.8192 8.1809C22.5425 8.1809 23.2362 7.89355 23.7477 7.38206C24.2592 6.87058 24.5465 6.17686 24.5465 5.45351C24.5465 4.73016 24.2592 4.03643 23.7477 3.52495C23.2362 3.01346 22.5425 2.72611 21.8192 2.72611C21.0958 2.72611 20.4021 3.01346 19.8906 3.52495C19.3791 4.03643 19.0918 4.73016 19.0918 5.45351Z" fill="#C4CCCC"/>
</svg>
